<svg id="Layer_1" data-name="Layer 1" xmlns="http://www.w3.org/2000/svg" viewBox="0 0 310.1 81.47"><title>print_branding_alt_2</title><path d="M49.36,39.66L85,60.07v40.8L49.36,121.13,13.71,100.87V60.07Z" transform="translate(-13.71 -39.66)" style="fill:#18202a"/><path d="M120.88,48.66a16.34,16.34,0,0,0-6.63-1.34,6.73,6.73,0,0,0-1.82.24,5.29,5.29,0,0,0-1.66.79,3.19,3.19,0,0,0-1.18,1.34,4.59,4.59,0,0,0-.47,2.21,3,3,0,0,0,1.34,2.53,20,20,0,0,0,4.11,2L118,57.82a11.54,11.54,0,0,1,2.61,1.74,9.72,9.72,0,0,1,2.05,2.68,9.47,9.47,0,0,1,.79,3.95,10,10,0,0,1-.95,4.5,8.5,8.5,0,0,1-2.61,3.16,12.33,12.33,0,0,1-3.87,1.74,18.55,18.55,0,0,1-4.74.55,23.66,23.66,0,0,1-3.71-.24c-0.95-.16-2.45-0.55-4.11-0.95l-0.71-.16,0.63-5.92a18.49,18.49,0,0,0,3.63,1.5,12.59,12.59,0,0,0,3.79.55,8.13,8.13,0,0,0,4-1.11,3.67,3.67,0,0,0,.47-6A22,22,0,0,0,111,61.69c-1.34-.47-2.45-1-3.32-1.42a18.14,18.14,0,0,1-2.61-1.66,7.87,7.87,0,0,1-2-2.61,9,9,0,0,1-.79-3.79,10.55,10.55,0,0,1,.95-4.58,8.5,8.5,0,0,1,2.61-3.16,10.3,10.3,0,0,1,3.63-1.74,15.22,15.22,0,0,1,4.34-.55,24.25,24.25,0,0,1,7.82,1.18l-0.79,5.29" transform="translate(-13.71 -39.66)" style="fill:#18202a"/><path d="M129.72,42.58h7.74l7.74,13.74,7.9-13.74H160L148.28,62.4v13h-6.55v-13Z" transform="translate(-13.71 -39.66)" style="fill:#18202a"/><path d="M168,42.66h8.05l12.48,24.48h0.08V42.66h6.32V75.43h-8.05L174.34,50.87h-0.16V75.43H168V42.66" transform="translate(-13.71 -39.66)" style="fill:#18202a"/><path d="M215.64,42.66h7.42l12.87,32.77h-7.26l-2.84-7.5H212.56l-2.84,7.5h-6.79l12.71-32.77m3.63,6.55-4.82,13.5H224l-4.74-13.5" transform="translate(-13.71 -39.66)" style="fill:#18202a"/><path d="M243.83,42.66h8.29a27.46,27.46,0,0,1,5.29.47,12.36,12.36,0,0,1,4.34,1.58,8,8,0,0,1,3,3.08,9.77,9.77,0,0,1,1,4.74,10.55,10.55,0,0,1-.95,4.74,8.17,8.17,0,0,1-2.61,3.24,11.81,11.81,0,0,1-4,1.82,19.59,19.59,0,0,1-5,.55h-2.76V75.35h-6.63V42.66m6.55,15.16h2.29a8.24,8.24,0,0,0,4.5-1.11,4.24,4.24,0,0,0,1.66-3.79,4.25,4.25,0,0,0-1.74-3.87,7.78,7.78,0,0,0-4.5-1.18H250.3l0.08,9.95" transform="translate(-13.71 -39.66)" style="fill:#18202a"/><path d="M292.31,48.66a16.34,16.34,0,0,0-6.63-1.34,6.73,6.73,0,0,0-1.82.24,4.58,4.58,0,0,0-1.66.79,5.12,5.12,0,0,0-1.26,1.34,4.59,4.59,0,0,0-.47,2.21,3,3,0,0,0,1.34,2.53,20,20,0,0,0,4.11,2l3.47,1.42A11.54,11.54,0,0,1,292,59.56,9.72,9.72,0,0,1,294,62.24a9.47,9.47,0,0,1,.79,3.95,10,10,0,0,1-.95,4.5,8.5,8.5,0,0,1-2.61,3.16,12.33,12.33,0,0,1-3.87,1.74,18.55,18.55,0,0,1-4.74.55A23.66,23.66,0,0,1,279,75.9c-0.95-.16-2.29-0.47-4-0.79L274.23,75,274.86,69a18.49,18.49,0,0,0,3.63,1.5,12.59,12.59,0,0,0,3.79.55,8.13,8.13,0,0,0,4-1.11,3.4,3.4,0,0,0,1.82-3.16A3.31,3.31,0,0,0,286.78,64a24.59,24.59,0,0,0-4.34-2.13c-1.34-.47-2.45-1-3.32-1.42a18.14,18.14,0,0,1-2.61-1.66,8.13,8.13,0,0,1-2-2.61,9,9,0,0,1-.79-3.79,10.55,10.55,0,0,1,.95-4.58,8.5,8.5,0,0,1,2.61-3.16,11.06,11.06,0,0,1,3.63-1.74,15.22,15.22,0,0,1,4.34-.55,24.25,24.25,0,0,1,7.82,1.18l-0.79,5.13" transform="translate(-13.71 -39.66)" style="fill:#18202a"/><path d="M304.39,42.66h19.35v5.13H310.95v8.05h11.69V61H310.95v9.24h12.87v5.13H304.39V42.66Z" transform="translate(-13.71 -39.66)" style="fill:#18202a"/><path d="M102.91,113.63a11.88,11.88,0,0,0,3.24,1.42,15.46,15.46,0,0,0,3.95.47,8,8,0,0,0,5.29-1.66,6.2,6.2,0,0,0,2.05-5,4.19,4.19,0,0,0-1.66-3.4,35.72,35.72,0,0,0-5.05-3.24c-1.34-.71-2.37-1.34-3.24-1.9a19.18,19.18,0,0,1-2.53-1.9,10.87,10.87,0,0,1-1.9-2.37,5.46,5.46,0,0,1-.71-3,7.26,7.26,0,0,1,.79-3.47,8.07,8.07,0,0,1,2.21-2.68,11.88,11.88,0,0,1,7.42-2.29,23.87,23.87,0,0,1,3.16.24,17.67,17.67,0,0,1,3.24.79l-0.47,2.92a8.44,8.44,0,0,0-2.61-.87,21.49,21.49,0,0,0-3.32-.32,13.84,13.84,0,0,0-2.61.32,6.42,6.42,0,0,0-2.29.95A4.9,4.9,0,0,0,105.6,93a4,4,0,0,0,1.58,3.32,25.45,25.45,0,0,0,4.9,3.08c1.34,0.79,2.53,1.34,3.4,2a18.37,18.37,0,0,1,2.53,2,10.8,10.8,0,0,1,2,2.61,8,8,0,0,1,.79,3.4,8.52,8.52,0,0,1-.95,4.11,7.57,7.57,0,0,1-2.53,2.92,9.43,9.43,0,0,1-3.47,1.66,13.1,13.1,0,0,1-3.87.55,22,22,0,0,1-4.11-.39,16.44,16.44,0,0,1-3.32-1l0.39-3.55" transform="translate(-13.71 -39.66)" style="fill:#18202a"/><path d="M142.48,87.89h-9.71V85h22.58v2.84h-9.71v29.93h-3.16V87.89" transform="translate(-13.71 -39.66)" style="fill:#18202a"/><path d="M191.86,106.36a14.55,14.55,0,0,1-1.11,5.84,10.88,10.88,0,0,1-2.84,3.79,11.64,11.64,0,0,1-3.79,2,14,14,0,0,1-4.11.55,15.09,15.09,0,0,1-4.11-.55,10.26,10.26,0,0,1-3.79-2,8.91,8.91,0,0,1-2.84-3.79,12.87,12.87,0,0,1-1.11-5.84V85h3.24v21.32a9.88,9.88,0,0,0,2.29,6.71c1.5,1.74,3.63,2.53,6.4,2.53s4.9-.79,6.4-2.53a9.6,9.6,0,0,0,2.29-6.71V85h3.08v21.32" transform="translate(-13.71 -39.66)" style="fill:#18202a"/><path d="M207.71,85.12h8.13a20.91,20.91,0,0,1,7.42,1.18,12.17,12.17,0,0,1,5.05,3.4,13.53,13.53,0,0,1,2.92,5.21,21.71,21.71,0,0,1,.95,6.63,19.59,19.59,0,0,1-1.34,7.5,13.39,13.39,0,0,1-3.87,5.13,14.78,14.78,0,0,1-5.92,2.84,32.1,32.1,0,0,1-7.58.95h-5.76V85.12m5.92,29.93a22.89,22.89,0,0,0,6.4-.79,12.1,12.1,0,0,0,4.82-2.45,10.89,10.89,0,0,0,3.08-4.34,16.82,16.82,0,0,0,1-6.32,16,16,0,0,0-1-6.16,10.6,10.6,0,0,0-2.84-4.11,11.37,11.37,0,0,0-4.19-2.29,19,19,0,0,0-5.29-.71h-4.74v27.16h2.76Z" transform="translate(-13.71 -39.66)" style="fill:#18202a"/><path d="M246.19,85.12h3.24v32.77h-3.24V85.12" transform="translate(-13.71 -39.66)" style="fill:#18202a"/><path d="M264.57,94.92a15.6,15.6,0,0,1,2.68-5.37,12.37,12.37,0,0,1,4.58-3.71,14.47,14.47,0,0,1,6.24-1.34,14.21,14.21,0,0,1,6.24,1.34,12.12,12.12,0,0,1,4.5,3.71,16.34,16.34,0,0,1,2.68,5.37,24.66,24.66,0,0,1,.87,6.48c0,5.13-1.34,9.24-3.79,12.32s-6,4.58-10.66,4.58-8.13-1.5-10.66-4.58-3.79-7.19-3.79-12.32a41,41,0,0,1,1.11-6.48m8.69-6.4a10.31,10.31,0,0,0-3.47,3.16,12.73,12.73,0,0,0-2.05,4.58,18.88,18.88,0,0,0-.71,5.21,19.3,19.3,0,0,0,.71,5.21,16,16,0,0,0,2.05,4.58,9.49,9.49,0,0,0,3.47,3.16,10.93,10.93,0,0,0,4.9,1.18,10,10,0,0,0,4.9-1.18,10.31,10.31,0,0,0,3.47-3.16,13.51,13.51,0,0,0,2.05-4.58,23,23,0,0,0,.71-5.21,19.3,19.3,0,0,0-.71-5.21,16,16,0,0,0-2.05-4.58A9.49,9.49,0,0,0,283,88.52a10.93,10.93,0,0,0-4.9-1.18,9.77,9.77,0,0,0-4.9,1.18" transform="translate(-13.71 -39.66)" style="fill:#18202a"/><path d="M305.93,113.63a11.88,11.88,0,0,0,3.24,1.42,15.46,15.46,0,0,0,3.95.47,8,8,0,0,0,5.29-1.66,6.2,6.2,0,0,0,2.05-5,4.19,4.19,0,0,0-1.66-3.4,35.72,35.72,0,0,0-5.05-3.24c-1.34-.71-2.37-1.34-3.24-1.9a19.18,19.18,0,0,1-2.53-1.9,10.87,10.87,0,0,1-1.9-2.37,5.46,5.46,0,0,1-.71-3,7.63,7.63,0,0,1,3-6.16,11.88,11.88,0,0,1,7.42-2.29,23.87,23.87,0,0,1,3.16.24,17.67,17.67,0,0,1,3.24.79l-0.47,2.92a9.2,9.2,0,0,0-2.61-.87,21.49,21.49,0,0,0-3.32-.32,13.84,13.84,0,0,0-2.61.32,6.42,6.42,0,0,0-2.29.95,5.8,5.8,0,0,0-1.66,1.74,4.91,4.91,0,0,0-.63,2.61,4,4,0,0,0,1.58,3.32,25.45,25.45,0,0,0,4.9,3.08c1.34,0.79,2.53,1.34,3.4,2a18.38,18.38,0,0,1,2.53,2,9.1,9.1,0,0,1,2,2.61,8,8,0,0,1,.79,3.4,8.52,8.52,0,0,1-.95,4.11,7.57,7.57,0,0,1-2.53,2.92,9.43,9.43,0,0,1-3.47,1.66,13.1,13.1,0,0,1-3.87.55,22,22,0,0,1-4.11-.39,16.44,16.44,0,0,1-3.32-1l0.39-3.55" transform="translate(-13.71 -39.66)" style="fill:#18202a"/></svg>